<mxfile host="65bd71144e">
    <diagram id="b-blfYIkdgPZX9wCAae5" name="Page-1">
        <mxGraphModel dx="760" dy="443" grid="1" gridSize="10" guides="1" tooltips="1" connect="1" arrows="1" fold="1" page="0" pageScale="1" pageWidth="827" pageHeight="1169" background="#ffffff" math="0" shadow="0">
            <root>
                <mxCell id="0"/>
                <mxCell id="1" parent="0"/>
                <mxCell id="3" value="" style="rounded=0;whiteSpace=wrap;html=1;fillColor=none;strokeColor=#000000;" parent="1" vertex="1">
                    <mxGeometry x="110" y="158" width="610" height="300" as="geometry"/>
                </mxCell>
                <mxCell id="4" value="ブラウザ" style="html=1;fillColor=#F3EFFA;fontColor=#000000;strokeColor=#000000;" parent="3" vertex="1">
                    <mxGeometry x="30" y="20" width="117.41" height="200" as="geometry"/>
                </mxCell>
                <mxCell id="76" value="Express&lt;br&gt;(TypeScript)" style="html=1;fillColor=#F3EFFA;fontColor=#000000;strokeColor=#000000;" parent="3" vertex="1">
                    <mxGeometry x="240" y="20" width="117.41" height="200" as="geometry"/>
                </mxCell>
                <mxCell id="77" value="" style="endArrow=classic;dashed=1;html=1;dashPattern=1 3;strokeWidth=2;fontColor=#000000;entryX=0;entryY=0.25;entryDx=0;entryDy=0;exitX=1;exitY=0.25;exitDx=0;exitDy=0;strokeColor=#000000;endFill=1;" parent="3" edge="1">
                    <mxGeometry width="50" height="50" relative="1" as="geometry">
                        <mxPoint x="147.40999999999997" y="35" as="sourcePoint"/>
                        <mxPoint x="240" y="34.999999999999886" as="targetPoint"/>
                    </mxGeometry>
                </mxCell>
                <mxCell id="79" value="" style="endArrow=classic;dashed=1;html=1;dashPattern=1 3;strokeWidth=2;fontColor=#000000;entryX=1;entryY=0.75;entryDx=0;entryDy=0;exitX=0;exitY=0.75;exitDx=0;exitDy=0;strokeColor=#000000;endFill=1;" parent="3" edge="1">
                    <mxGeometry width="50" height="50" relative="1" as="geometry">
                        <mxPoint x="240" y="45.000000000000114" as="sourcePoint"/>
                        <mxPoint x="147.40999999999997" y="45" as="targetPoint"/>
                    </mxGeometry>
                </mxCell>
                <mxCell id="89" value="HTML" style="shape=note;whiteSpace=wrap;html=1;backgroundOutline=1;darkOpacity=0.05;strokeColor=#000000;fontColor=#000000;fillColor=#f3effa;size=10;" vertex="1" parent="3">
                    <mxGeometry x="153" y="56.33" width="80" height="20" as="geometry"/>
                </mxCell>
                <mxCell id="93" value="JavaScript" style="shape=note;whiteSpace=wrap;html=1;backgroundOutline=1;darkOpacity=0.05;strokeColor=#000000;fontColor=#000000;fillColor=#f3effa;size=10;" vertex="1" parent="3">
                    <mxGeometry x="157" y="112.04" width="77" height="20" as="geometry"/>
                </mxCell>
                <mxCell id="94" value="通信結果のJSONをもとに&lt;br&gt;JavaScript が UI を書き換える" style="text;html=1;strokeColor=none;fillColor=none;align=left;verticalAlign=middle;whiteSpace=wrap;rounded=0;fontColor=#000000;" vertex="1" parent="3">
                    <mxGeometry x="30" y="229" width="180" height="34.62" as="geometry"/>
                </mxCell>
                <mxCell id="82" value="HTML" style="shape=note;whiteSpace=wrap;html=1;backgroundOutline=1;darkOpacity=0.05;strokeColor=#000000;fontColor=#000000;fillColor=#f3effa;size=10;" parent="3" vertex="1">
                    <mxGeometry x="247" y="212" width="100" height="20" as="geometry"/>
                </mxCell>
                <mxCell id="83" value="CSS" style="shape=note;whiteSpace=wrap;html=1;backgroundOutline=1;darkOpacity=0.05;strokeColor=#000000;fontColor=#000000;fillColor=#f3effa;size=10;" parent="3" vertex="1">
                    <mxGeometry x="257" y="230" width="100" height="20" as="geometry"/>
                </mxCell>
                <mxCell id="84" value="JavaScript" style="shape=note;whiteSpace=wrap;html=1;backgroundOutline=1;darkOpacity=0.05;strokeColor=#000000;fontColor=#000000;fillColor=#f3effa;size=10;" parent="3" vertex="1">
                    <mxGeometry x="267" y="249" width="100" height="20" as="geometry"/>
                </mxCell>
                <mxCell id="85" value="TypeScript" style="shape=note;whiteSpace=wrap;html=1;backgroundOutline=1;darkOpacity=0.05;strokeColor=#000000;fontColor=#000000;fillColor=#f3effa;size=10;" parent="3" vertex="1">
                    <mxGeometry x="277" y="267" width="100" height="20" as="geometry"/>
                </mxCell>
                <mxCell id="112" value="GET:/&amp;nbsp; =&amp;gt; static/index.html を返す&amp;nbsp;" style="text;html=1;strokeColor=none;fillColor=none;align=left;verticalAlign=middle;whiteSpace=wrap;rounded=0;fontColor=#000000;" vertex="1" parent="3">
                    <mxGeometry x="370" y="21.710000000000004" width="200" height="34.62" as="geometry"/>
                </mxCell>
                <mxCell id="90" value="" style="endArrow=classic;dashed=1;html=1;dashPattern=1 3;strokeWidth=2;fontColor=#000000;entryX=0;entryY=0.25;entryDx=0;entryDy=0;exitX=1;exitY=0.25;exitDx=0;exitDy=0;strokeColor=#000000;endFill=1;" edge="1" parent="1">
                    <mxGeometry width="50" height="50" relative="1" as="geometry">
                        <mxPoint x="259.40999999999997" y="247" as="sourcePoint"/>
                        <mxPoint x="352" y="246.9999999999999" as="targetPoint"/>
                    </mxGeometry>
                </mxCell>
                <mxCell id="92" value="" style="endArrow=classic;dashed=1;html=1;dashPattern=1 3;strokeWidth=2;fontColor=#000000;entryX=1;entryY=0.75;entryDx=0;entryDy=0;exitX=0;exitY=0.75;exitDx=0;exitDy=0;strokeColor=#000000;endFill=1;" edge="1" parent="1">
                    <mxGeometry width="50" height="50" relative="1" as="geometry">
                        <mxPoint x="350" y="260.0000000000001" as="sourcePoint"/>
                        <mxPoint x="257.40999999999997" y="260" as="targetPoint"/>
                    </mxGeometry>
                </mxCell>
                <mxCell id="95" value="" style="endArrow=classic;dashed=1;html=1;dashPattern=1 3;strokeWidth=2;fontColor=#000000;entryX=0;entryY=0.25;entryDx=0;entryDy=0;exitX=1;exitY=0.25;exitDx=0;exitDy=0;strokeColor=#000000;endFill=1;" edge="1" parent="1">
                    <mxGeometry width="50" height="50" relative="1" as="geometry">
                        <mxPoint x="257.40999999999997" y="301" as="sourcePoint"/>
                        <mxPoint x="350" y="300.9999999999999" as="targetPoint"/>
                    </mxGeometry>
                </mxCell>
                <mxCell id="96" value="JavaScript&lt;br&gt;で通信" style="text;html=1;strokeColor=none;fillColor=none;align=center;verticalAlign=middle;whiteSpace=wrap;rounded=0;fontColor=#000000;" vertex="1" parent="1">
                    <mxGeometry x="254" y="305" width="96" height="30" as="geometry"/>
                </mxCell>
                <mxCell id="97" value="" style="endArrow=classic;dashed=1;html=1;dashPattern=1 3;strokeWidth=2;fontColor=#000000;entryX=1;entryY=0.75;entryDx=0;entryDy=0;exitX=0;exitY=0.75;exitDx=0;exitDy=0;strokeColor=#000000;endFill=1;" edge="1" parent="1">
                    <mxGeometry width="50" height="50" relative="1" as="geometry">
                        <mxPoint x="349" y="343.00000000000017" as="sourcePoint"/>
                        <mxPoint x="256.40999999999997" y="343" as="targetPoint"/>
                    </mxGeometry>
                </mxCell>
                <mxCell id="111" value="JSON" style="shape=note;whiteSpace=wrap;html=1;backgroundOutline=1;darkOpacity=0.05;strokeColor=#000000;fontColor=#000000;fillColor=#f3effa;size=10;" vertex="1" parent="1">
                    <mxGeometry x="265" y="354.33" width="80" height="20" as="geometry"/>
                </mxCell>
                <mxCell id="113" value="GET:/main.js&amp;nbsp; =&amp;gt; static/main.js を返す&amp;nbsp;" style="text;html=1;strokeColor=none;fillColor=none;align=left;verticalAlign=middle;whiteSpace=wrap;rounded=0;fontColor=#000000;" vertex="1" parent="1">
                    <mxGeometry x="480" y="228.71" width="220" height="34.62" as="geometry"/>
                </mxCell>
                <mxCell id="114" value="POST:/api/games&amp;nbsp; =&amp;gt; ゲーム開始の処理" style="text;html=1;strokeColor=none;fillColor=none;align=left;verticalAlign=middle;whiteSpace=wrap;rounded=0;fontColor=#000000;" vertex="1" parent="1">
                    <mxGeometry x="480" y="283.71000000000004" width="220" height="34.62" as="geometry"/>
                </mxCell>
                <mxCell id="17" value="Untitled Layer" parent="0"/>
                <mxCell id="26" value="Untitled Layer" parent="0"/>
            </root>
        </mxGraphModel>
    </diagram>
</mxfile>